<svg xmlns="http://www.w3.org/2000/svg" direction="ltr" width="204.8606604773159" height="188.45217086360537" viewBox="-13.131431405713684 804.6677138012549 204.8606604773159 188.45217086360537" stroke-linecap="round" stroke-linejoin="round" style="background-color: transparent;" data-color-mode="dark" class="tl-container tl-theme__force-sRGB tl-theme__dark"><defs/><g transform="matrix(1, 0, 0, 1, 82.4378, 878.0675)" opacity="1"><g transform="scale(1)"><path d="M0.1738,3.2677 T-1.3296,3.3014 -5.1374,3.2845 -9.2045,3.1206 -12.5054,2.9949 -15.4404,2.9975 -18.2534,3.9636 -20.7058,6.3961 -22.2612,9.4044 -22.9127,12.4109 -23.1965,15.8362 -23.4474,19.7545 -23.5996,23.945 -23.6731,28.2837 -23.6982,32.4166 -23.3698,36.19 -22.5574,39.3094 -20.4434,41.6159 -17.1319,42.7996 -13.4032,43.0988 -9.8173,43.2638 -6.8028,43.4135 -3.6617,43.4494 -0.2678,43.5301 3.4193,43.7759 6.9946,43.9978 10.5223,44.0868 14.4129,44.1149 18.3819,44.129 22.3652,44.1387 26.0885,44.0803 29.4253,43.7692 32.563,42.5918 34.8294,40.1654 35.8055,37.2817 36.2167,34.4086 36.3917,31.4894 36.3791,28.475 36.3601,25.4732 36.3503,22.4386 36.3481,19.0594 36.3502,15.4694 36.3477,12.1014 35.4117,9.4734 32.9128,7.911 29.953,7.2526 26.8178,6.887 23.4675,6.6757 20.1027,6.6309 16.7305,6.6058 13.6261,6.5952 10.4885,6.5964 7.3286,6.6054 4.3647,6.616 0.2375,6.6001 -2.4373,6.5787 A3.8104,3.8104 0 0 1 -2.4373,-1.0421 T-0.191,-1.0635 3.5568,-1.0806 6.5919,-1.0718 9.6539,-1.0612 12.6241,-1.0564 15.6572,-1.0636 19.0023,-1.082 22.4681,-1.1006 25.8242,-1.0574 29.1659,-0.8176 32.3927,-0.2972 35.252,0.4611 37.967,1.4437 40.5819,3.2193 42.6627,5.5618 43.779,8.6212 44.0405,12.1014 44.038,15.4694 44.0401,19.0594 44.0379,22.4386 44.028,25.4736 44.0072,28.4863 43.958,31.6625 43.7149,34.8087 43.2156,38.3005 42.2467,41.9393 40.8048,44.8546 39.0414,47.0419 36.8022,48.8556 34.1326,50.1884 30.696,51.0023 27.2121,51.4057 23.7006,51.5014 19.7158,51.5097 15.7329,51.5191 11.758,51.5231 7.8268,51.4742 4.1666,51.2875 0.7004,50.9895 -2.8236,50.8085 -6.3239,50.7029 -9.7825,50.4823 -12.9804,50.3079 -16.1934,50.1282 -19.3927,49.6997 -22.3534,48.9013 -25.2178,47.4051 -27.6254,44.6747 -29.1362,41.2201 -29.9203,37.9697 -30.276,34.4588 -30.3583,30.3791 -30.3696,26.0781 -30.3607,21.5713 -30.2123,17.3034 -29.9782,13.3176 -29.4468,9.2388 -28.2065,5.4758 -26.5248,2.5738 -24.4489,0.101 -21.6742,-2.2344 -18.4478,-3.4854 -15.3595,-3.6526 -12.2601,-3.5427 -8.9521,-3.3059 -5.2396,-3.0776 -1.6714,-3.1417 -0.1738,-3.2677 A3.2724,3.2724 0 0 1 0.1738,3.2677 Z" stroke-linecap="round" fill="#9398b0"/></g></g><g transform="matrix(1, 0, 0, 1, 69.6154, 895.0486)" opacity="1"><g transform="scale(1)"><path d="M0,-3.202 T1.4228,-3.1714 5.2037,-3.1381 9.688,-3.1496 13.6615,-3.1895 17.1977,-3.242 20.4844,-3.2933 24.0127,-3.3584 27.4628,-3.4356 31.4726,-3.5128 33.9624,-3.5533 A3.5533,3.5533 0 0 1 33.9624,3.5533 T31.4726,3.5128 27.4628,3.4356 24.0127,3.3584 20.4844,3.2933 17.1977,3.242 13.6615,3.1895 9.688,3.1496 5.2037,3.1381 1.4228,3.1714 0,3.202 A3.202,3.202 0 0 1 0,-3.202 Z" stroke-linecap="round" fill="#9398b0"/></g></g><g transform="matrix(1, 0, 0, 1, 68.2291, 905.0986)" opacity="1"><g transform="scale(1)"><path d="M0,-3.228 T1.3431,-3.2044 5.0207,-3.1751 9.5107,-3.1773 13.488,-3.2098 16.9039,-3.2621 20.0681,-3.3132 23.1213,-3.3582 26.0183,-3.3999 29.1757,-3.4519 32.3857,-3.5128 35.4665,-3.5589 37.0811,-3.5761 A3.5761,3.5761 0 0 1 37.0811,3.5761 T35.4665,3.5589 32.3857,3.5128 29.1757,3.4519 26.0183,3.3999 23.1213,3.3582 20.0681,3.3132 16.9039,3.2621 13.488,3.2098 9.5107,3.1773 5.0207,3.1751 1.3431,3.2044 0,3.228 A3.228,3.228 0 0 1 0,-3.228 Z" stroke-linecap="round" fill="#9398b0"/></g></g><g transform="matrix(1, 0, 0, 1, 66.4964, 915.1487)" opacity="1"><g transform="scale(1)"><path d="M0,-3.2697 T1.5005,-3.2239 5.145,-3.1859 9.022,-3.2209 12.4895,-3.2696 15.6749,-3.3177 18.8307,-3.3853 22.1191,-3.4597 25.2663,-3.5202 28.3907,-3.5689 31.3883,-3.6099 34.2323,-3.6535 37.2264,-3.6906 38.8135,-3.7033 A3.7033,3.7033 0 0 1 38.8135,3.7033 T37.2264,3.6906 34.2323,3.6535 31.3883,3.6099 28.3907,3.5689 25.2663,3.5202 22.1191,3.4597 18.8307,3.3853 15.6749,3.3177 12.4895,3.2696 9.022,3.2209 5.145,3.1859 1.5005,3.2239 0,3.2697 A3.2697,3.2697 0 0 1 0,-3.2697 Z" stroke-linecap="round" fill="#9398b0"/></g></g><g transform="matrix(1, 0, 0, 1, 37.4935, 862.4278)" opacity="1"><g transform="scale(1)"><path d="M0,3.3674 T-0.9191,3.3635 -2.0833,4.7363 -2.4296,7.7024 -0.9872,9.8581 0.8113,8.9619 -0.3756,6.9689 -1.051,5.1625 0.0502,5.6862 1.436,8.4977 3.086,8.1625 3.3721,5.4455 2.5918,4.5429 2.1248,5.01 A3.7314,3.7314 0 0 1 -5.325,4.5715 T-5.0502,2.1442 -3.5376,-1.8321 -0.6132,-3.8423 2.7713,-4.0395 5.8778,-2.9525 8.5896,-0.4999 10.5617,2.9481 11.0238,6.287 10.1759,9.5961 8.0274,13.1501 5.2646,15.6101 2.6065,16.4573 -0.9527,15.7985 -4.7392,12.757 -6.7647,8.1045 -7.0157,3.6725 -5.7322,-0.3118 -1.9314,-2.6338 2.4207,-1.8922 5.0092,0.6154 6.2264,3.8696 6.3759,7.0935 5.5716,9.9706 3.6477,12.7869 0.2129,14.7258 -3.5365,14.8978 -6.6602,12.8208 -8.5986,9.1609 -8.7737,5.4904 -7.4427,1.9771 -4.5133,-0.4891 -0.9311,-0.7879 2.5434,0.3284 5.6996,2.5382 7.7126,5.9881 8.1117,9.4779 7.0559,12.7462 4.4908,15.7773 0.796,17.206 -2.8739,17.1107 -6.2118,15.7464 -8.6683,12.6402 -9.3877,8.8411 -8.9893,4.8444 -7.546,0.6228 -4.1857,-2.3463 -0.9729,-3.3635 0,-3.3674 A3.3674,3.3674 0 0 1 0,3.3674 Z" stroke-linecap="round" fill="#f2f2f2"/></g></g><g transform="matrix(1, 0, 0, 1, 85.4338, 841.6218)" opacity="1"><g transform="scale(1)"><path d="M2.3754,2.2049 T1.408,3.2031 -0.4781,5.842 -1.6815,9.3115 -0.9605,12.3791 1.4572,13.6966 4.2021,13.1298 5.455,10.5167 5.3127,7.0615 3.1542,4.6565 1.058,3.7388 A3.7302,3.7302 0 0 1 1.4203,-3.7128 T2.8689,-3.6133 6.1271,-2.8405 9.2822,-0.863 11.3528,1.8664 12.2929,4.7368 12.4667,8.128 12.3268,11.5446 11.6371,14.8362 9.807,17.8459 6.5857,19.7286 2.6026,20.4128 -1.428,19.9979 -5.2501,18.3171 -7.7322,14.6709 -8.1553,10.0539 -7.5496,6.4325 -6.562,3.6096 -5.0694,1.0187 -3.3004,-1.1644 -2.3754,-2.2049 A3.241,3.241 0 0 1 2.3754,2.2049 ZM4.269,2.1889 T3.7943,2.8351 2.956,5.4387 2.4611,9.4259 3.1945,10.2074 4.5664,9.2649 5.0738,9.5707 A3.6829,3.6829 0 0 1 -1.2389,5.7751 T1.2915,3.6427 5.5233,1.6751 8.8025,2.759 10.9833,5.8793 11.108,9.8313 9.1027,13.5525 5.5383,16.5325 1.0542,17.362 -2.8934,15.3313 -4.5475,11.3295 -4.5499,6.6286 -3.7854,1.9343 -2.4813,-1.1865 -1.7908,-2.1629 A3.7302,3.7302 0 0 1 4.269,2.1889 Z" stroke-linecap="round" fill="#f2f2f2"/></g></g><g transform="matrix(1, 0, 0, 1, 153.2066, 862.8179)" opacity="1"><g transform="scale(1)"><path d="M0.2058,3.2847 T-0.9579,3.3465 -3.5762,4.0709 -5.7681,6.1418 -6.9617,8.9334 -7.3918,11.9313 -5.7535,14.2762 -2.5592,14.8922 -0.0521,13.1522 1.3716,9.872 1.1757,6.7723 -0.8893,5.8426 -2.6996,7.6903 -1.6901,9.3882 -0.0821,8.2565 0.7814,8.8601 1.4865,10.961 A3.6848,3.6848 0 0 1 -5.7857,9.7664 T-5.4424,7.9547 -3.8277,4.1345 -0.2115,1.7146 3.8733,2.2549 6.4033,5.3946 6.8194,9.3969 5.2439,13.0797 1.7243,15.885 -2.4098,16.6242 -6.4833,15.2887 -9.4361,12.794 -10.0495,9.4183 -9.271,5.2913 -7.1525,1.1834 -3.5049,-1.583 0.222,-2.0007 3.204,-0.8765 6.1648,1.4406 8.1772,5.3839 8.2183,9.997 6.6408,14.6225 4.7169,18.1699 2.6775,20.216 -1.0546,21.537 -5.9141,21.4411 -10.4197,19.3185 -13.5136,15.1348 -14.2113,10.6535 -13.3177,6.7614 -11.4451,2.7123 -8.6081,-0.6123 -4.7542,-2.4902 -1.372,-3.2005 -0.2058,-3.2847 A3.2911,3.2911 0 0 1 0.2058,3.2847 ZM-1.1197,6.8257 T-0.9419,7.0551 -0.1348,6.602 0.4945,5.9195 A3.663,3.663 0 0 1 4.6207,11.973 T3.8509,12.5186 1.6143,13.7895 -1.516,14.2083 -3.1795,13.9017 A3.6848,3.6848 0 0 1 -1.1197,6.8257 Z" stroke-linecap="round" fill="#f2f2f2"/></g></g><g transform="matrix(1, 0, 0, 1, 86.0585, 944.1805)" opacity="1"><g transform="scale(1)"><path d="M-0.7066,3.2898 T-1.7123,3.0662 -3.6055,4.139 -4.7455,7.0968 -4.2384,10.0142 -1.5888,11.6197 2.323,10.7207 5.3842,8.2037 6.6933,5.4036 5.4106,3.0987 2.1809,2.4133 -0.5893,3.6695 -2.0252,6.4794 -0.9466,7.5949 0.8659,5.6971 2.7105,4.4287 4.5029,5.34 4.8416,6.1475 A3.6687,3.6687 0 0 1 -2.2796,7.9155 T-2.4467,4.7862 -0.9621,-0.0769 2.5504,-1.8981 6.1471,-0.7222 8.1772,2.3977 8.118,6.0177 6.5905,9.7957 3.191,12.9771 -1.0543,14.0646 -5.2957,13.0377 -8.4452,9.707 -9.0462,5.4949 -7.7108,1.5247 -4.8467,-2.1411 -0.8223,-4.2245 2.8221,-4.7386 5.8218,-4.5319 9.2275,-3.5955 12.306,-1.0506 13.5682,2.6941 13.1847,6.7825 11.4598,10.8629 8.0666,14.6542 4.5379,17.2637 0.1466,18.2926 -5.4449,17.5505 -9.6753,14.5675 -11.6702,11.1857 -11.9333,8.1283 -11.413,4.7425 -10.1734,1.2717 -7.5674,-1.8964 -3.5766,-3.513 -0.3264,-3.5041 0.7066,-3.2898 A3.3648,3.3648 0 0 1 -0.7066,3.2898 Z" stroke-linecap="round" fill="#f2f2f2"/></g></g><g transform="matrix(1, 0, 0, 1, 145.9293, 926.2073)" opacity="1"><g transform="scale(1)"><path d="M1.48,2.9545 T0.1513,3.5707 -2.4854,5.246 -4.2922,8.0949 -3.2729,10.1178 -0.0609,9.551 2.387,7.2954 3.4166,4.3352 2.4057,1.8279 0.2344,2.1098 -0.8836,5.0746 -0.1559,5.1863 2.039,2.9529 1.9376,1.7051 -0.7118,2.0391 -2.6383,4.8788 -2.7806,5.4283 -2.3105,4.0553 A3.6783,3.6783 0 0 1 4.2251,7.4325 T3.2425,9.2182 0.6212,12.1122 -3.2317,13.302 -7.3351,12.0704 -9.9004,8.6276 -10.4201,4.4919 -9.2904,0.213 -6.2106,-3.2711 -2.5252,-4.4817 0.8937,-3.9792 4.2531,-2.1534 6.1711,1.5074 5.4555,5.6261 2.2818,7.9986 -1.5775,7.5576 -3.7804,4.6695 -3.9154,1.2751 -1.8924,-2.1613 1.902,-3.991 5.5394,-2.7283 7.6652,0.5316 7.8807,4.3352 6.689,7.8906 3.8755,11.2438 -0.2649,12.86 -4.4841,11.8719 -7.3275,8.4408 -7.9186,4.3255 -6.8396,0.4176 -4.5076,-3.5059 -1.6978,-5.7573 1.156,-6.123 4.2266,-5.4761 7.2991,-3.709 9.6168,-0.3216 10.189,3.8667 9.0468,8.5274 7.2537,12.4308 5.3549,14.649 3.0443,16.2423 -0.4971,17.045 -4.7289,16.7047 -8.5068,14.8122 -10.8691,11.2719 -11.0302,7.2512 -9.3647,3.4241 -6.0745,-0.0383 -2.7733,-2.2572 -1.48,-2.9545 A3.3044,3.3044 0 0 1 1.48,2.9545 Z" stroke-linecap="round" fill="#f2f2f2"/></g></g><g transform="matrix(1, 0, 0, 1, 31.7395, 920.9751)" opacity="1"><g transform="scale(1)"><path d="M0.4532,3.3914 T-0.6372,3.5228 -2.9905,4.4191 -4.732,6.8549 -5.4024,10.2704 -4.4766,13.2563 -1.8709,15.0506 1.0501,14.5218 2.8642,11.7645 3.294,8.4435 2.0959,5.7647 0.502,6.3233 1.0122,9.1779 1.7608,8.9622 2.1243,8.6044 2.5968,9.7251 A3.7212,3.7212 0 0 1 -4.5167,7.5371 T-3.3047,4.9605 -0.1421,1.6285 3.5047,1.3185 6.3099,2.7643 8.1672,5.9483 8.6816,9.7519 7.4152,13.5588 3.7052,16.6936 -0.8022,16.9178 -4.1963,14.4769 -6.5191,10.4456 -7.1551,6.1573 -6.3673,2.3554 -4.1337,-0.8596 -0.6988,-2.4853 2.8396,-2.5223 6.0654,-1.5281 8.6381,0.6431 10.1679,3.8233 10.6381,7.5042 10.4694,10.881 9.8873,14.0154 8.6088,17.1626 6.6254,19.9772 3.5147,22.0626 -0.1404,22.7488 -3.7419,22.0486 -7.4371,20.3124 -10.5777,17.4245 -12.374,13.7243 -12.728,10.261 -12.1126,6.9388 -11.077,3.7912 -9.5776,1.1045 -7.4356,-1.019 -4.4571,-2.4356 -1.5471,-3.2309 -0.4532,-3.3914 A3.4216,3.4216 0 0 1 0.4532,3.3914 Z" stroke-linecap="round" fill="#f2f2f2"/></g></g><g transform="matrix(1, 0, 0, 1, 85.4616, 837.3965)" opacity="1"><g transform="scale(1)"><path d="M0.559,3.4304 T-0.762,3.654 -2.9679,5.0391 -4.4832,7.9492 -5.6113,11.4261 -5.8288,14.5587 -4.5844,17.0704 -2.1456,18.8957 0.9423,19.6887 4.383,19.7714 7.0231,18.2607 8.0394,15.3245 8.258,12.5005 7.9513,9.6025 6.7014,7.0321 4.4597,5.1601 1.2309,3.6772 -0.6847,2.9874 A3.8979,3.8979 0 0 1 1.6676,-4.445 T3.4137,-3.8814 6.4835,-2.7404 9.0796,-1.2452 11.6548,0.924 13.8229,3.4554 15.2824,6.2052 15.9604,9.4002 16.0074,12.7786 15.7299,15.9448 15.0957,18.8606 13.8722,22.058 11.5708,25.1496 8.5945,26.9198 5.2547,27.3887 1.8551,27.3502 -1.4708,27.088 -5.1117,26.0644 -8.2923,24.0325 -10.8271,21.295 -12.8078,18.2152 -13.5704,15.0698 -13.2786,11.8759 -12.4498,8.583 -11.3677,5.4576 -9.9052,2.3303 -7.7617,-0.599 -5.0073,-2.4146 -2.0267,-3.1996 -0.559,-3.4304 A3.4757,3.4757 0 0 1 0.559,3.4304 Z" stroke-linecap="round" fill="#4dabf7"/></g></g><g transform="matrix(1, 0, 0, 1, 32.9014, 917.5063)" opacity="1"><g transform="scale(1)"><path d="M-0.2175,3.4245 T-1.2223,3.3534 -3.7648,3.3058 -6.7573,4.2185 -8.9633,6.2837 -9.9971,9.0246 -10.3239,12.4882 -10.3181,15.9536 -9.0545,18.448 -6.1956,20.0946 -2.8881,21.0433 0.313,20.8091 3.193,19.4894 5.1314,17.148 5.8086,13.911 5.7019,10.5889 4.4333,7.7335 2.1189,5.6471 -0.2229,4.2006 -1.3322,3.556 A3.7773,3.7773 0 0 1 2.4303,-2.995 T4.5875,-1.6938 7.939,0.5866 10.2847,2.9847 12.2291,6.2904 13.1814,10.237 13.2642,13.9931 12.9196,17.2391 12.0025,20.2495 10.2343,23.0843 7.3225,25.626 4.136,27.4594 0.5163,28.3862 -3.7371,28.3464 -7.8263,27.3094 -11.1855,25.9428 -13.9661,24.2248 -16.3862,21.4133 -17.5076,18.2208 -17.6746,14.8299 -17.6126,11.4748 -17.3522,8.4055 -16.3544,4.8898 -14.2944,1.3993 -11.3872,-1.398 -7.8968,-3.0845 -3.9149,-3.5613 -0.7883,-3.4811 0.2175,-3.4245 A3.4314,3.4314 0 0 1 -0.2175,3.4245 Z" stroke-linecap="round" fill="#4f72fc"/></g></g><g transform="matrix(1, 0, 0, 1, 35.0553, 857.3416)" opacity="1"><g transform="scale(1)"><path d="M1.2195,3.2606 T0.2088,3.6223 -2.0167,5.0197 -3.7188,7.5416 -4.2391,10.5563 -4.256,13.7661 -3.3786,16.555 -1.0012,17.6502 2.0254,17.5993 5.0422,16.4098 7.5653,14.0173 9.3775,11.5618 10.3394,8.7323 9.4666,6.0553 7.061,4.2631 4.3248,3.0216 1.7696,2.4636 0.5846,2.4166 A3.8055,3.8055 0 0 1 1.0731,-5.1788 T3.7083,-4.7851 7.9746,-3.7374 11.1905,-2.1765 14.1063,-0.1661 16.4282,2.533 17.7478,5.6997 17.9841,8.83 17.5236,11.7874 16.1805,14.836 14.0638,17.9118 11.7971,20.5526 9.378,22.6745 6.3508,24.359 2.5307,25.2181 -1.2567,25.2396 -4.4921,24.8056 -7.3683,23.6526 -9.8431,21.3892 -11.3512,18.0473 -11.707,14.7351 -11.6402,11.8114 -11.3397,8.5033 -10.5789,5.3445 -9.098,2.53 -7.0288,-0.0626 -4.5762,-1.8202 -2.2198,-2.8702 -1.2195,-3.2606 A3.4812,3.4812 0 0 1 1.2195,3.2606 Z" stroke-linecap="round" fill="#ffc034"/></g></g><g transform="matrix(1, 0, 0, 1, 87.2235, 940.0657)" opacity="1"><g transform="scale(1)"><path d="M0.4575,3.4364 T-0.4847,3.5563 -2.8214,4.2072 -5.094,6.0024 -6.3328,8.9318 -6.7236,12.4013 -5.6656,15.2405 -2.8229,16.7917 0.6133,17.0504 3.6015,15.908 5.739,13.8848 6.8937,11.3732 6.99,8.5193 5.9101,5.8438 3.1469,4.1954 1.2361,3.7415 A3.7445,3.7445 0 0 1 1.5252,-3.7419 T3.6791,-3.5923 7.5979,-2.5858 10.3931,-0.5427 12.4681,2.315 14.0221,5.5096 14.5233,8.9132 14.2382,12.322 13.3058,15.3145 11.7256,18.0256 9.4024,20.5643 6.529,22.7101 3.1764,24.1068 -0.3928,24.6062 -4.0089,24.1589 -7.6371,22.8405 -10.6167,20.6123 -12.8285,17.7179 -13.9383,14.1543 -13.9955,10.4081 -13.3512,6.7973 -11.9579,3.3392 -9.9191,0.5205 -7.1554,-1.5154 -3.9523,-2.7589 -1.3985,-3.3056 -0.4575,-3.4364 A3.4667,3.4667 0 0 1 0.4575,3.4364 Z" stroke-linecap="round" fill="#f76707"/></g></g><g transform="matrix(1, 0, 0, 1, 150.8319, 859.618)" opacity="1"><g transform="scale(1)"><path d="M0.435,3.5038 T-0.8669,3.6747 -3.5269,4.3171 -5.8503,5.8775 -7.895,8.3153 -9.235,11.1897 -9.5006,14.4083 -8.1441,16.8782 -5.391,18.1638 -2.3633,18.8486 0.6789,18.9855 3.3291,17.771 4.7996,14.8639 5.0539,11.4231 4.5764,8.2212 3.0159,5.6925 0.5132,3.9886 -0.9345,3.3205 A3.8056,3.8056 0 0 1 1.8432,-3.7658 T3.8093,-2.8558 6.9609,-1.0154 9.1748,1.0885 11.005,3.6281 12.1996,6.5709 12.6544,10.1968 12.6489,14.0099 12.1439,17.6262 10.7148,21.103 8.6623,23.7426 6.3481,25.4013 3.5651,26.4094 0.5624,26.7687 -2.4601,26.6756 -5.5411,26.2234 -8.5737,25.2596 -11.4272,23.8675 -14.0714,22.1618 -16.1737,19.9412 -17.0831,17.0151 -17.1577,13.8952 -16.911,10.7598 -16.1682,7.6646 -14.6878,4.8139 -12.4232,2.0625 -10.0048,-0.2746 -7.5087,-1.8585 -4.5304,-2.8396 -1.6847,-3.3579 -0.435,-3.5038 A3.5307,3.5307 0 0 1 0.435,3.5038 Z" stroke-linecap="round" fill="#e03131"/></g></g><g transform="matrix(1, 0, 0, 1, 144.2355, 918.8697)" opacity="1"><g transform="scale(1)"><path d="M1.2556,3.2549 T-0.024,3.756 -2.432,5.113 -4.3457,7.147 -5.4894,9.7016 -6.062,12.4772 -5.8679,15.2834 -3.9604,17.5858 -0.9969,18.9101 2.1392,18.5834 4.9003,16.6949 6.304,13.9151 6.0727,10.8477 4.8603,8.1782 3.0283,5.9086 0.7431,4.6839 -0.3766,4.4792 A3.9119,3.9119 0 0 1 0.7839,-3.258 T3.4732,-2.4845 7.3971,-0.7283 9.5925,1.3194 11.2811,3.6809 12.6958,6.308 13.8011,9.2019 14.2611,12.3337 14.042,15.4227 13.0655,18.4234 11.2867,21.2229 8.9904,23.4806 6.5088,25.1422 3.5747,26.3883 0.2801,26.8693 -2.8507,26.3984 -6.1471,25.021 -9.3059,23.1152 -11.6965,20.9589 -13.2134,18.4474 -13.7547,15.642 -13.6197,12.6953 -13.0168,9.3979 -12.0742,6.1124 -10.6268,3.3089 -8.5241,0.9505 -5.7226,-1.1131 -2.6685,-2.7173 -1.2556,-3.2549 A3.4887,3.4887 0 0 1 1.2556,3.2549 Z" stroke-linecap="round" fill="#40c057"/></g></g></svg>