<svg xmlns="http://www.w3.org/2000/svg" direction="ltr" width="288.83497861354044" height="161.1134216305111" viewBox="124.54596647832392 214.70272186574132 288.83497861354044 161.1134216305111" stroke-linecap="round" stroke-linejoin="round" style="background-color: transparent;" data-color-mode="dark" class="tl-container tl-theme__force-sRGB tl-theme__dark"><defs/><g transform="matrix(1, 0, 0, 1, 156.546, 255.9448)" opacity="1"><g transform="scale(1)"><path d="M2.6986,-0.6599 T3.0823,1.1039 3.9447,5.2813 5.1247,10.6683 6.5761,16.6368 7.9667,22.2931 9.1642,27.4744 10.1459,31.8027 11.1572,35.5584 11.7436,37.5057 A2.3905,2.3905 0 0 1 7.0687,38.5073 T6.8501,36.4731 6.3025,32.6594 5.3538,28.4223 4.0004,23.3558 2.3778,17.7773 0.5953,11.8459 -1.025,6.514 -2.2251,2.4018 -2.6986,0.6599 A2.7781,2.7781 0 0 1 2.6986,-0.6599 ZM7.1261,37.2881 T7.2427,36.6917 7.8518,33.8303 8.8438,29.773 9.9936,25.8542 11.3035,21.6129 12.5697,17.6229 13.7183,14.1668 14.9578,10.744 15.6551,8.9023 A2.6133,2.6133 0 0 1 20.1281,11.6061 T19.3446,12.8884 17.9802,15.6371 16.8294,18.8933 15.7546,22.7907 14.8069,27.0727 13.9523,31.068 12.8976,35.131 11.9705,38.049 11.6862,38.7249 A2.3905,2.3905 0 0 1 7.1261,37.2881 ZM20.2918,9.2205 T20.7485,10.1065 21.9812,13.7483 23.1742,18.1744 24.0602,21.8863 25.0083,25.5303 26.2715,29.4199 27.6763,33.2259 28.2971,34.7447 A2.9106,2.9106 0 0 1 22.801,36.663 T22.3715,34.9739 21.3071,30.9346 20.17,26.9315 19.0122,23.2734 17.8628,19.5886 16.7022,15.4044 15.7633,12.0937 15.4914,11.2879 A2.6133,2.6133 0 0 1 20.2918,9.2205 ZM26.0844,32.8429 T26.1311,32.8471 26.1778,32.8512 A2.9196,2.9196 0 0 1 25.1038,38.5908 T25.0588,38.5778 25.0137,38.5648 A2.9106,2.9106 0 0 1 26.0844,32.8429 ZM22.732,35.4698 T22.7988,33.9096 23.1464,29.1085 23.7253,23.1956 24.331,17.5016 24.8985,11.7307 25.4035,6.6892 25.9508,2.0741 26.5893,-2.9842 26.9257,-5.7202 A1.896,1.896 0 0 1 30.6945,-5.3018 T30.4228,-2.5587 29.9433,2.455 29.6135,6.994 29.3948,12.0235 29.2102,17.8012 29.1125,23.4866 29.0329,29.4563 28.7564,34.3647 28.5496,35.9723 A2.9196,2.9196 0 0 1 22.732,35.4698 Z" stroke-linecap="round" fill="#f2f2f2"/></g></g><g transform="matrix(1, 0, 0, 1, 196.7335, 253.3823)" opacity="1"><g transform="scale(1)"><path d="M2.7387,0.076 T2.5937,2.1258 2.3371,7.7079 2.1557,14.3293 2.0575,19.545 2.0067,23.7986 2.0058,27.8233 1.9798,31.9842 1.9321,34.2474 A1.9921,1.9921 0 0 1 -2.052,34.2518 T-2.1046,31.9887 -2.1398,27.8293 -2.1525,23.8092 -2.2251,19.561 -2.3632,14.3375 -2.5678,7.6359 -2.7077,1.9787 -2.7387,-0.076 A2.7398,2.7398 0 0 1 2.7387,0.076 Z" stroke-linecap="round" fill="#f2f2f2"/></g></g><g transform="matrix(1, 0, 0, 1, 196.3585, 256.8198)" opacity="1"><g transform="scale(1)"><path d="M-0.2327,-2.8589 T1.3377,-2.9657 4.543,-3.2439 7.9242,-3.6394 11.6238,-4.1267 15.1809,-4.6405 18.6776,-5.1369 20.5704,-5.383 A2.4709,2.4709 0 0 1 21.3084,-0.4967 T19.4273,-0.1728 15.9868,0.3785 12.4518,1.0112 8.6714,1.7345 5.1166,2.3071 1.7997,2.7103 0.2327,2.8589 A2.8683,2.8683 0 0 1 -0.2327,-2.8589 Z" stroke-linecap="round" fill="#f2f2f2"/></g></g><g transform="matrix(1, 0, 0, 1, 196.671, 273.4448)" opacity="1"><g transform="scale(1)"><path d="M-0.5494,-3.1095 T0.8224,-3.3284 4.6743,-3.9399 9.34,-4.5791 13.8573,-4.9175 16.1889,-5.0093 A3.1418,3.1418 0 0 1 16.4297,1.2697 T14.2152,1.3522 10.0813,1.6029 5.7194,2.1758 1.9131,2.845 0.5494,3.1095 A3.1577,3.1577 0 0 1 -0.5494,-3.1095 Z" stroke-linecap="round" fill="#f2f2f2"/></g></g><g transform="matrix(1, 0, 0, 1, 198.046, 286.1323)" opacity="1"><g transform="scale(1)"><path d="M0.3705,-2.884 T2.2418,-2.5674 5.8417,-2.0818 9.2783,-1.8171 12.5742,-1.6821 17.2002,-1.6647 20.2384,-1.6867 A2.6268,2.6268 0 0 1 20.2616,3.5667 T18.5886,3.5878 15.4757,3.5929 12.4045,3.5386 8.9783,3.4528 5.2972,3.3114 1.5202,3.0507 -0.3705,2.884 A2.9077,2.9077 0 0 1 0.3705,-2.884 Z" stroke-linecap="round" fill="#f2f2f2"/></g></g><g transform="matrix(1, 0, 0, 1, 238.796, 255.0698)" opacity="1"><g transform="scale(1)"><path d="M2.8992,0.0464 T2.8286,1.7557 2.7056,5.1825 2.6136,8.6327 2.5477,12.0788 2.5132,15.4224 2.5165,18.5364 2.5897,22.4365 2.572,26.8265 2.3672,29.8799 2.2417,30.9594 A2.9588,2.9588 0 0 1 -3.6218,30.1615 T-3.4543,29.0877 -3.0881,26.4323 -2.8256,22.4332 -2.7476,18.5303 -2.7369,15.4118 -2.7578,12.0596 -2.7988,8.5966 -2.8448,5.114 -2.8833,1.6643 -2.8992,-0.0464 A2.8996,2.8996 0 0 1 2.8992,0.0464 Z" stroke-linecap="round" fill="#f2f2f2"/></g></g><g transform="matrix(1, 0, 0, 1, 223.2335, 253.0698)" opacity="1"><g transform="scale(1)"><path d="M-0.0442,-2.8743 T1.7374,-2.8496 5.2684,-2.8048 8.7536,-2.7662 12.2728,-2.7233 15.74,-2.6929 18.9804,-2.6974 21.9541,-2.7309 25.6414,-2.8834 29.4608,-3.1362 32.1532,-3.3233 33.2967,-3.3871 A3.0772,3.0772 0 0 1 33.3282,2.7671 T32.2233,2.7148 29.5942,2.5993 25.7218,2.5267 21.9576,2.4957 18.9863,2.4663 15.75,2.4692 12.2916,2.5132 8.7891,2.581 5.334,2.6656 1.8242,2.7949 0.0442,2.8743 A2.8747,2.8747 0 0 1 -0.0442,-2.8743 Z" stroke-linecap="round" fill="#f2f2f2"/></g></g><g transform="matrix(1, 0, 0, 1, 229.7359, 301.3575)" opacity="1"><g transform="scale(1)"><path d="M2.5078,-0.7673 T3.0404,1.2541 4.0582,5.4706 4.9854,9.8844 5.8574,14.3069 6.6974,18.526 7.5103,22.2822 8.2496,25.5714 8.8534,28.5315 9.3723,31.3189 10.2613,35.4696 10.8989,38.2446 A2.7359,2.7359 0 0 1 5.5244,39.272 T5.172,36.339 4.5196,30.6566 4.0044,26.3983 3.4555,23.1229 2.7136,19.3713 1.7767,15.2296 0.6816,10.9463 -0.5067,6.7668 -1.8182,2.7405 -2.5078,0.7673 A2.6225,2.6225 0 0 1 2.5078,-0.7673 ZM5.6042,37.9298 T5.8165,37.0085 6.4525,34.3867 7.7579,29.7053 9.5337,24.0895 11.2838,19.0676 12.85,14.7183 14.0793,11.1921 15.4559,7.0875 16.8687,3.0743 17.4238,1.6019 A2.546,2.546 0 0 1 22.1745,3.435 T21.5967,4.8987 20.0027,8.7699 18.418,12.6936 17.2404,16.1405 16.0083,20.4606 14.7854,25.5242 13.4347,31.2134 12.1345,35.9558 11.2019,38.635 10.819,39.5868 A2.7359,2.7359 0 0 1 5.6042,37.9298 Z" stroke-linecap="round" fill="#f2f2f2"/></g></g><g transform="matrix(1, 0, 0, 1, 258.2961, 304.1973)" opacity="1"><g transform="scale(1)"><path d="M2.675,0 T2.6832,1.4796 2.6629,4.708 2.5643,8.4798 2.401,12.7137 2.2295,17.1829 2.1279,21.5201 2.1375,25.3593 2.27,30.0296 2.3697,32.9396 A2.3697,2.3697 0 0 1 -2.3697,32.9396 T-2.27,30.0296 -2.1375,25.3593 -2.1279,21.5201 -2.2295,17.1829 -2.401,12.7137 -2.5643,8.4798 -2.6629,4.708 -2.6832,1.4796 -2.675,0 A2.675,2.675 0 0 1 2.675,0 Z" stroke-linecap="round" fill="#f2f2f2"/></g></g><g transform="matrix(1, 0, 0, 1, 258.215, 304.6842)" opacity="1"><g transform="scale(1)"><path d="M-0.1524,-2.8531 T1.9442,-2.8552 5.9274,-2.8788 9.5194,-2.9596 12.7606,-3.1221 15.9136,-3.3337 19.4738,-3.5228 21.4167,-3.6037 A2.4692,2.4692 0 0 1 21.742,1.3238 T19.8054,1.499 16.2341,1.7807 13.0151,1.969 9.7058,2.1306 6.1516,2.3105 2.2374,2.6318 0.1524,2.8531 A2.8571,2.8571 0 0 1 -0.1524,-2.8531 Z" stroke-linecap="round" fill="#f2f2f2"/></g></g><g transform="matrix(1, 0, 0, 1, 261.9473, 318.3963)" opacity="1"><g transform="scale(1)"><path d="M0.0212,-2.7475 T2.3893,-2.5964 6.8644,-2.3814 10.9122,-2.3179 14.6579,-2.3372 17.9471,-2.4224 21.2164,-2.5164 23.0015,-2.5443 A2.3846,2.3846 0 0 1 23.0811,2.2243 T21.2961,2.256 18.0028,2.2715 14.7006,2.2611 10.9482,2.3121 6.8545,2.4377 2.349,2.6329 -0.0212,2.7475 A2.7476,2.7476 0 0 1 0.0212,-2.7475 Z" stroke-linecap="round" fill="#f2f2f2"/></g></g><g transform="matrix(1, 0, 0, 1, 260, 335.6785)" opacity="1"><g transform="scale(1)"><path d="M-0.0276,-2.965 T1.934,-2.8895 5.5023,-2.8079 9.8201,-2.8035 14.1829,-2.7587 17.8303,-2.6125 19.826,-2.513 A2.5932,2.5932 0 0 1 19.7695,2.6731 T17.772,2.729 14.0791,2.7951 9.7633,2.7471 5.5451,2.7151 1.9874,2.853 0.0276,2.965 A2.9651,2.9651 0 0 1 -0.0276,-2.965 Z" stroke-linecap="round" fill="#f2f2f2"/></g></g><g transform="matrix(1, 0, 0, 1, 293.9152, 302.8991)" opacity="1"><g transform="scale(1)"><path d="M2.7366,0 T2.7159,1.6643 2.6408,5.2324 2.4923,9.3002 2.3085,13.7156 2.1691,18.1358 2.1309,22.2049 2.1961,25.6382 2.4275,29.53 2.6048,31.8888 A2.6048,2.6048 0 0 1 -2.6048,31.8888 T-2.4275,29.53 -2.1961,25.6382 -2.1309,22.2049 -2.1691,18.1358 -2.3085,13.7156 -2.4923,9.3002 -2.6408,5.2324 -2.7159,1.6643 -2.7366,0 A2.7366,2.7366 0 0 1 2.7366,0 ZM-2.599,31.7153 T-2.5898,30.2632 -2.2793,25.8255 -1.7184,20.8446 -1.2247,16.6868 -0.8355,12.3262 -0.5798,7.9128 -0.5124,4.1151 -0.5981,0.8964 -0.4179,-1.7903 -0.1852,-2.8409 A2.643,2.643 0 0 1 4.8162,-1.1296 T4.532,-0.6696 4.0452,1.1913 3.7663,4.1818 3.7116,8.0215 3.7427,12.5417 3.7191,17.0591 3.5881,21.3332 3.2224,26.3626 2.7768,30.7136 2.599,32.0622 A2.6048,2.6048 0 0 1 -2.599,31.7153 ZM4.6085,-3.2998 T5.3724,-2.158 7.1866,0.8716 8.9188,4.1116 10.3963,7.0918 12.0761,10.5611 13.9141,14.2963 15.9069,18.2047 17.7897,21.6548 19.7953,24.5401 20.957,25.9895 A2.624,2.624 0 0 1 16.8137,29.2105 T15.7255,27.2746 13.8531,23.8801 11.8609,20.4812 9.5216,16.6955 7.3434,13.0863 5.3782,9.7263 3.7586,6.816 2.0946,3.5736 0.5771,0.4873 0.0226,-0.6707 A2.643,2.643 0 0 1 4.6085,-3.2998 ZM16.325,27.0257 T16.4463,26.1594 16.9613,22.5937 17.7454,17.9632 18.5731,13.9119 19.4801,9.6333 20.3241,5.5606 20.9701,2.0733 21.619,-1.3537 21.9963,-3.2076 A2.3049,2.3049 0 0 1 26.5191,-2.3162 T26.1646,-0.4577 25.4684,2.9394 24.7842,6.3809 24.1383,10.4177 23.5975,14.7168 23.1218,18.8139 22.4701,23.424 21.7511,27.1383 21.4457,28.1743 A2.624,2.624 0 0 1 16.325,27.0257 Z" stroke-linecap="round" fill="#f2f2f2"/></g></g><g transform="matrix(1, 0, 0, 1, 336.5933, 299.9782)" opacity="1"><g transform="scale(1)"><path d="M2.6726,0 T2.6446,1.7578 2.5826,5.6053 2.5218,10.0492 2.4619,14.8483 2.4129,19.4738 2.4418,23.4693 2.5173,26.7805 2.3362,30.8904 2.1245,33.5039 A2.4647,2.4647 0 0 1 -2.7646,32.8753 T-2.3381,30.5249 -1.8154,26.7421 -1.6965,23.5011 -1.7301,19.5252 -1.8943,14.9461 -2.1659,10.1776 -2.4732,5.6683 -2.6446,1.7578 -2.6726,0 A2.6726,2.6726 0 0 1 2.6726,0 Z" stroke-linecap="round" fill="#f2f2f2"/></g></g><g transform="matrix(1, 0, 0, 1, 325.1114, 297.5754)" opacity="1"><g transform="scale(1)"><path d="M0.0894,-2.811 T1.8096,-2.7197 5.3066,-2.5229 8.8712,-2.3449 12.8876,-2.1392 16.9809,-1.9826 20.4502,-1.9794 25.0654,-2.0441 28.0761,-2.0887 A2.4988,2.4988 0 0 1 28.0643,2.9088 T25.0505,2.8498 20.4274,2.7588 16.9457,2.7279 12.8128,2.8219 8.7146,2.9125 5.1163,2.8789 1.6332,2.8292 -0.0894,2.811 A2.8125,2.8125 0 0 1 0.0894,-2.811 Z" stroke-linecap="round" fill="#f2f2f2"/></g></g><g transform="matrix(1, 0, 0, 1, 381.3809, 301.033)" opacity="1"><g transform="scale(1)"><path d="M-1.3357,3.0708 T-2.313,2.6384 -5.1819,1.8058 -8.5006,1.3479 -11.4373,1.6116 -14.1856,2.6678 -15.0306,4.7588 -13.3515,7.197 -10.4959,9.3142 -7.1433,11.5899 -3.7736,14.2371 -1.3326,16.828 0.4477,19.6952 1.8849,23.3738 2.4839,26.9729 2.0525,30.3106 0.3448,33.4061 -2.5516,35.4571 -5.7773,36.3004 -8.9129,36.4484 -12.2408,36.2463 -15.8016,35.56 -19.4216,34.2734 -22.5074,32.5583 -24.6044,30.4804 -25.6652,27.8956 -25.4741,24.7246 -25.0018,22.9789 A3.6829,3.6829 0 0 1 -18.155,25.6949 T-18.271,26.2285 -16.9559,27.5022 -14.165,28.5913 -10.9159,29.1108 -7.2583,29.2087 -4.967,27.8391 -4.8891,24.949 -6.1443,22.0389 -8.2043,19.6323 -11.0052,17.5221 -14.4457,15.3521 -18.117,12.7054 -21.0844,9.6801 -22.6235,6.7873 -22.7572,3.7036 -21.6307,0.3802 -19.4776,-2.2066 -16.5925,-3.9369 -13.146,-5.0774 -9.6985,-5.4604 -6.1502,-5.2402 -2.4363,-4.4706 0.3521,-3.4913 1.3357,-3.0708 A3.3488,3.3488 0 0 1 -1.3357,3.0708 Z" stroke-linecap="round" fill="#f2f2f2"/></g></g><g transform="matrix(1, 0, 0, 1, 211.5862, 304.3282)" opacity="1"><g transform="scale(1)"><path d="M0.088,2.7042 T-2.1575,2.651 -6.7744,2.5412 -11.6356,2.4341 -16.6835,2.3423 -21.7815,2.2684 -26.7587,2.2108 -31.4153,2.1732 -35.6081,2.1947 -39.273,2.2916 -42.4138,2.4262 -45.9553,2.6384 -47.8271,4.9514 -47.6879,9.0152 -47.8843,13.0654 -48.0819,17.3655 -48.1995,21.5107 -48.2204,25.2617 -48.186,28.5368 -48.1993,32.4013 -48.2684,36.526 -45.9512,37.3809 -41.715,36.5365 -37.751,36.7342 -33.4804,36.9503 -29.0044,37.1519 -24.4194,37.3161 -19.8847,37.4344 -15.6486,37.474 -11.6685,37.4551 -8.1192,37.3844 -4.0797,37.1913 0.1941,36.928 3.4589,36.6935 6.329,36.4943 6.6503,37.2781 5.4683,35.7956 5.467,30.4852 5.6239,25.7952 5.6928,22.3128 5.6366,18.873 5.4699,15.6634 5.1263,11.3546 4.6774,6.3367 4.2826,2.4867 2.8788,1.571 0.2613,2.4652 -3.4399,2.7944 -5.7438,2.944 A3.3553,3.3553 0 0 1 -6.2669,-3.7462 T-5.0488,-3.8652 -2.1637,-4.1365 0.9817,-4.4332 4.5473,-4.5744 7.9761,-3.9932 9.7626,-1.4379 10.2107,2.1354 10.3067,5.904 10.6059,10.9175 10.9278,15.3047 11.1875,18.6252 11.4458,22.227 11.6233,25.7965 11.777,30.4915 11.8097,35.7821 11.229,39.6912 9.2321,41.842 6.3631,42.3365 3.5401,42.1788 0.2513,42.0114 -4.0798,41.7846 -8.1193,41.5914 -11.6686,41.5205 -15.6489,41.5013 -19.8852,41.5404 -24.4203,41.6578 -29.0061,41.8203 -33.4839,42.0188 -37.7586,42.2291 -41.7325,42.4162 -45.1913,42.5319 -48.7328,42.4804 -52.0995,41.6788 -53.7082,39.1981 -53.6754,35.8986 -53.1875,32.1847 -52.8903,28.5064 -52.8173,25.2593 -52.8341,21.5067 -52.9444,17.3579 -53.1287,13.0489 -53.3005,8.9746 -53.3587,5.5898 -53.1778,2.4845 -52.2158,-0.405 -49.7379,-1.9022 -45.956,-1.9992 -42.415,-1.7881 -39.2746,-1.6552 -35.6106,-1.5615 -31.4195,-1.5459 -26.7662,-1.5942 -21.7956,-1.6715 -16.7112,-1.7818 -11.6922,-1.9402 -6.8924,-2.1699 -2.3254,-2.5051 -0.088,-2.7042 A2.7056,2.7056 0 0 1 0.088,2.7042 Z" stroke-linecap="round" fill="#9398b0"/></g></g><g transform="matrix(1, 0, 0, 1, 172.897, 315.1995)" opacity="1"><g transform="scale(1)"><path d="M-0.0381,-3.0462 T1.4194,-3.0424 4.3351,-3.0312 7.2067,-3.0194 10.0277,-3.0101 12.8599,-2.9655 16.8971,-2.8751 21.8444,-2.8335 25.7515,-2.8893 29.0169,-2.9998 30.7096,-3.0634 A3.2234,3.2234 0 0 1 30.7038,3.3835 T28.3544,3.2863 23.9714,3.1377 19.3683,3.0412 14.1232,2.9277 10.0451,2.8699 7.2383,2.8959 4.393,2.9384 1.4951,3.0059 0.0381,3.0462 A3.0464,3.0464 0 0 1 -0.0381,-3.0462 Z" stroke-linecap="round" fill="#9398b0"/></g></g><g transform="matrix(1, 0, 0, 1, 172.897, 325.4314)" opacity="1"><g transform="scale(1)"><path d="M0,-3.0418 T1.3133,-3.0358 5.1732,-3.0271 10.4904,-3.0019 14.7203,-2.9626 17.7033,-2.9245 20.7849,-2.881 23.811,-2.8519 28.0302,-2.8478 30.7814,-2.8509 A2.8509,2.8509 0 0 1 30.7814,2.8509 T28.0302,2.8478 23.811,2.8519 20.7849,2.881 17.7033,2.9245 14.7203,2.9626 10.4904,3.0019 5.1732,3.0271 1.3133,3.0358 0,3.0418 A3.0418,3.0418 0 0 1 0,-3.0418 Z" stroke-linecap="round" fill="#9398b0"/></g></g><g transform="matrix(1, 0, 0, 1, 172.9769, 334.784)" opacity="1"><g transform="scale(1)"><path d="M0.0994,-2.8778 T1.6833,-2.7996 4.9705,-2.603 8.4395,-2.3623 12.005,-2.122 15.5411,-1.9381 18.9478,-1.8252 22.1284,-1.7185 25.1342,-1.5934 28.412,-1.407 30.1942,-1.2858 A2.5695,2.5695 0 0 1 29.9238,3.846 T28.1388,3.7792 24.8594,3.6202 21.9268,3.4322 18.8186,3.2988 15.359,3.2385 11.7625,3.1713 8.176,3.084 4.7341,2.9908 1.4862,2.909 -0.0994,2.8778 A2.8795,2.8795 0 0 1 0.0994,-2.8778 Z" stroke-linecap="round" fill="#9398b0"/></g></g><g transform="matrix(1, 0, 0, 1, 268.7451, 251.6369)" opacity="1"><g transform="scale(1)"><path d="M1.842,-2.9916 T2.8143,-2.3643 5.1764,-0.8457 8.1624,1.2622 10.8762,3.4606 12.9007,5.615 14.5416,8.1166 15.2203,10.9131 14.1754,13.8347 11.6924,16.0495 8.3038,16.8456 4.9274,16.0656 2.1375,14.0704 0.0695,11.4865 -0.6821,8.3286 0.5607,5.1909 3.7117,3.4257 5.6276,3.0441 A3.8701,3.8701 0 0 1 5.2754,10.7762 T6.2436,10.3563 6.1962,8.8887 3.92,6.8186 1.4065,4.9797 -0.8442,3.5774 -1.842,2.9916 A3.5133,3.5133 0 0 1 1.842,-2.9916 Z" stroke-linecap="round" fill="#4f72fc"/></g></g><g transform="matrix(1, 0, 0, 1, 252.9402, 268.9028)" opacity="1"><g transform="scale(1)"><path d="M2.0824,-2.7724 T2.9781,-2.0751 5.2802,-0.2245 8.0495,2.1761 10.1623,4.6662 11.1638,7.3082 11.0438,10.2769 9.2987,13.2214 6.4491,14.9868 3.4934,15.2409 0.2811,14.0996 -2.3762,11.4669 -3.3323,8.3927 -2.3658,5.5413 0.5031,3.5568 2.3737,2.977 A3.8237,3.8237 0 0 1 3.3479,10.562 T3.8057,9.3582 3.2384,7.1503 0.9848,5.1253 -1.1631,3.4384 -2.0824,2.7724 A3.4674,3.4674 0 0 1 2.0824,-2.7724 Z" stroke-linecap="round" fill="#4f72fc"/></g></g><g transform="matrix(1, 0, 0, 1, 272.7296, 276.1412)" opacity="1"><g transform="scale(1)"><path d="M1.5812,-3.0645 T2.5717,-2.5338 5.1175,-1.2465 8.1909,0.3482 10.9953,2.1299 13.2741,4.1028 14.7331,6.8235 15.0959,10.1685 13.7756,13.3803 10.9808,15.3923 7.4194,15.6942 3.8432,15.0835 0.7951,13.6406 -1.3034,11.2656 -1.5608,7.8861 -0.0269,4.6857 2.6073,2.5885 6.3812,1.8637 9.9759,3.8966 11.2831,5.7689 A3.8619,3.8619 0 0 1 4.2543,8.971 T4.7386,8.3508 6.808,8.335 7.277,8.0092 4.9295,6.3718 2.065,4.8643 -0.5746,3.5642 -1.5812,3.0645 A3.4484,3.4484 0 0 1 1.5812,-3.0645 Z" stroke-linecap="round" fill="#4f72fc"/></g></g><g transform="matrix(1, 0, 0, 1, 292.0307, 263.0386)" opacity="1"><g transform="scale(1)"><path d="M1.6496,-3.0931 T2.5004,-2.6292 5.1128,-1.289 8.1831,0.6585 10.2715,3.1003 11.5173,6.162 12.0066,9.5561 11.0251,13.0764 8.6731,15.6242 5.4681,16.5188 1.8673,16.3917 -1.6338,15.0418 -3.9789,12.6512 -4.5447,9.8767 -3.7983,7.1229 -1.4582,4.7861 1.6703,3.571 5.7412,4.4211 8.2986,5.4604 A3.881,3.881 0 0 1 3.82,11.8001 T3.4715,11.4866 2.4269,9.9111 3.0973,8.1759 3.6082,6.5323 1.4107,4.6756 -0.7903,3.5412 -1.6496,3.0931 A3.5055,3.5055 0 0 1 1.6496,-3.0931 Z" stroke-linecap="round" fill="#4f72fc"/></g></g><g transform="matrix(1, 0, 0, 1, 350.9966, 258.2386)" opacity="1"><g transform="scale(1)"><path d="M-0.2269,2.0399 T-1.145,1.9265 -3.6599,1.7505 -6.8605,1.9001 -10.1465,2.6402 -13.1988,3.9137 -15.2856,5.5038 -14.843,6.8046 -12.0784,7.4555 -9.0907,7.7872 -6.3951,8.0033 -3.9131,8.0871 -1.7318,8.0048 0.8847,7.4584 3.3205,6.4237 4.12,4.8607 3.2223,2.9756 1.3404,1.6966 -0.7469,1.1121 -2.8311,0.8756 -4.1422,1.1378 -4.4399,1.4332 A2.397,2.397 0 0 1 -6.8911,-2.6868 T-5.401,-3.2779 -2.9666,-3.7952 -1.1022,-3.5769 0.7848,-3.1901 2.818,-2.5152 4.9515,-1.3346 6.7227,0.3077 7.7958,2.2474 8.1267,4.6099 7.2755,7.3871 5.0603,9.6181 2.6338,10.72 0.5956,11.2226 -1.553,11.4917 -3.9113,11.6324 -6.4698,11.7153 -9.2796,11.8205 -11.8338,11.8411 -13.8916,11.6606 -16.4289,10.904 -18.8694,9.2292 -19.8905,6.8471 -19.4508,4.372 -17.7568,2.2795 -15.842,0.8531 -14.1098,-0.0643 -12.174,-0.8796 -10.1698,-1.5398 -8.163,-2.0063 -6.1837,-2.2755 -3.4125,-2.291 -0.6937,-2.1311 0.2269,-2.0399 A2.0525,2.0525 0 0 1 -0.2269,2.0399 Z" stroke-linecap="round" fill="#e03131"/></g></g><g transform="matrix(1, 0, 0, 1, 353.2621, 258.0597)" opacity="1"><g transform="scale(1)"><path d="M-2.2338,0.3262 T-2.3351,-0.4506 -2.7143,-2.1657 -3.6181,-4.1222 -4.8532,-5.9002 -6.3811,-7.2128 -8.3123,-8.0394 -10.3694,-8.4744 -12.5747,-8.7593 -14.7808,-8.9288 -16.8206,-8.9856 -18.8215,-8.9991 -20.9671,-8.8959 -23.032,-8.5146 -24.3614,-7.1357 -24.9069,-4.9379 -25.0734,-2.6231 -25.1019,-0.2406 -25.0956,1.9865 -25.0013,3.9974 -24.7775,6.0189 -24.5325,8.4121 -24.3743,10.8149 -24.2149,13.0327 -24.0587,15.3868 -23.9721,17.7593 -23.9107,19.8542 -23.8678,21.7315 -23.834,23.6728 -23.7664,25.6956 -23.4575,27.6182 -21.976,28.7305 -19.8309,28.714 -18.6134,27.5599 -18.1399,25.5577 -17.9613,23.5512 -17.8581,21.433 -17.4784,19.2582 -16.3536,17.5369 -14.4673,16.7099 -12.3981,16.923 -10.4615,17.9384 -9.0681,19.54 -8.3042,21.52 -7.7831,23.7392 -7.4021,25.9269 -6.5373,26.2653 -5.7333,24.4958 -5.6491,22.3212 -5.6713,20.1688 -5.7335,18.148 -5.7905,16.187 -5.8643,14.1284 -5.9841,12.0591 -6.0538,11.0724 A2.6175,2.6175 0 0 1 -0.8351,10.6586 T-0.7195,12.2237 -0.5441,14.8642 -0.4878,16.8725 -0.4733,18.7868 -0.4399,20.7034 -0.4321,22.5937 -0.5127,24.7442 -0.8472,27.1357 -1.6049,29.4216 -2.7644,31.3583 -4.2085,32.7801 -6.0785,33.478 -8.2532,33.3244 -10.1218,32.4001 -11.3905,30.8228 -12.1463,28.7747 -12.5506,26.7229 -12.9162,24.8151 -13.6251,22.8635 -13.34,21.3236 -12.6673,21.7619 -12.7801,23.6957 -12.9457,25.7415 -13.3313,27.7875 -14.067,29.9459 -15.2503,31.9807 -17.0008,33.3228 -19.0035,33.9918 -20.9556,34.1277 -23.1943,33.9194 -25.3424,33.2473 -27.0003,31.9972 -28.1799,30.1456 -28.7477,28.1335 -28.9443,26.1746 -29.0008,24.1485 -28.9696,22.1951 -28.9325,20.2846 -28.9285,18.3405 -28.9615,16.3408 -29.047,14.2682 -29.2136,12.2063 -29.4333,9.7664 -29.6611,7.3169 -29.8987,5.1114 -30.054,2.796 -30.076,0.5294 -30.0659,-1.9054 -29.9685,-4.5061 -29.6732,-6.8106 -28.9986,-9.051 -27.8896,-11.0735 -26.38,-12.4196 -24.3822,-13.2198 -22.0414,-13.559 -19.8353,-13.6801 -17.7972,-13.6969 -15.6528,-13.6606 -13.2626,-13.5523 -10.7687,-13.3296 -8.3536,-12.9615 -5.8521,-12.2303 -3.5201,-11.0001 -1.7053,-9.3332 -0.3943,-7.5624 0.7091,-5.6212 1.6288,-3.1919 2.1086,-1.1003 2.2338,-0.3262 A2.2575,2.2575 0 0 1 -2.2338,0.3262 Z" stroke-linecap="round" fill="#e03131"/></g></g><g transform="matrix(1, 0, 0, 1, 325.2609, 259.8484)" opacity="1"><g transform="scale(1)"><path d="M-0.0732,2.3449 T-1.0653,2.3166 -3.1948,2.2914 -5.3813,2.3151 -8.1467,2.3074 -9.863,2.2789 A2.5031,2.5031 0 0 1 -9.5782,-2.7192 T-8.0024,-2.616 -5.3675,-2.4881 -3.1258,-2.4383 -0.935,-2.3791 0.0732,-2.3449 A2.346,2.346 0 0 1 -0.0732,2.3449 ZM-7.2176,-0.1931 T-7.2192,0.7022 -7.186,2.6859 -7.1243,4.8392 -6.9635,7.2202 -6.8146,9.6501 -6.7985,11.7962 -6.799,13.8821 -6.7511,16.5802 -6.7016,18.2248 A2.5592,2.5592 0 0 1 -11.8143,18.4667 T-11.8407,17.354 -11.8674,15.252 -11.8718,13.1746 -11.8818,11.1 -11.9378,8.9215 -12.0893,6.6532 -12.2045,4.5828 -12.2388,2.5913 -12.2415,0.6735 -12.2235,-0.2471 A2.5031,2.5031 0 0 1 -7.2176,-0.1931 ZM-9.5756,15.8063 T-8.5541,15.6786 -6.4713,15.5493 -4.2208,15.5553 -2.0162,15.5597 -0.2032,15.5375 0.5943,15.5185 A2.5489,2.5489 0 0 1 0.6744,20.6158 T-0.1616,20.6386 -2.0136,20.6585 -4.2126,20.6651 -6.4104,20.685 -8.1827,20.7903 -8.9403,20.8852 A2.5592,2.5592 0 0 1 -9.5756,15.8063 Z" stroke-linecap="round" fill="#e03131"/></g></g></svg>